<svg fill="#000000" xmlns="http://www.w3.org/2000/svg" xmlns:xlink="http://www.w3.org/1999/xlink" version="1.0" x="0px" y="0px" viewBox="10 10 80 80" enable-background="new 0 0 100 100" xml:space="preserve"><path d="M50,10c-22.09,0-40,17.909-40,40c0,22.09,17.91,40,40,40s40-17.91,40-40C90,27.909,72.09,10,50,10z M50,83.333  c-18.411,0-33.333-14.925-33.333-33.333c0-16.198,11.559-29.688,26.875-32.695c-11.973,6.024-20.209,18.373-20.209,32.692  c0,14.723,11.94,26.666,26.667,26.666S76.663,64.724,76.667,50c-0.004-11.042-8.952-20-20-20c-11.045,0-20,8.958-20,20  c0,7.366,5.97,13.333,13.333,13.333S63.333,57.366,63.333,50c0-3.685-2.984-6.667-6.666-6.667S50,46.315,50,50h6.667  c0,3.685-2.985,6.667-6.667,6.667S43.333,53.685,43.333,50c0-7.36,5.971-13.333,13.334-13.333C64.033,36.667,70,42.637,70,50  c-0.003,11.042-8.955,19.997-20,19.997s-20-8.959-20-20C30,33.431,43.435,20,60,20c1.976,0,3.88,0.254,5.745,0.622  C76.211,26.242,83.333,37.285,83.333,50C83.333,68.408,68.408,83.333,50,83.333z"></path></svg>